# xmcd
#
# Track frame offsets:
#	150
#	9662
#	20956
#	32016
#	44732
#	61284
#	72349
#	82394
#	97110
#	110769
#	121974
#	134212
#	142664
#	152349
#	163269
#	177430
#	188981
#	204037
#	216622
#	228141
#
# Disc length: 3233 seconds
#
# Revision: 0
# Processed by: cddbd v1.5.2PL0 Copyright (c) Steve Scherf et al.
# Submitted via: dBpowerAMP V4.0
#
DISCID=2f0c9f14
DTITLE=Eddy Arnold - Wanderin'
DYEAR=2006
DGENRE=Country
TTITLE0=Wanderin'
TTITLE1=The Rovin' Gambler
TTITLE2=The Lonesome Road
TTITLE3=Down In The Valley
TTITLE4=Barbara Allen
TTITLE5=On Top Of Old Smokey
TTITLE6=I Gave My Love A Cherry
TTITLE7=The Wayfaring Stranger
TTITLE8=Across The Wide Missouri
TTITLE9=Careless Love
TTITLE10=Red River Valley
TTITLE11=Sometimes I Feel Like A Motherless Child
TTITLE12=Sweet Betsy From Pike
TTITLE13=Home On The Range
TTITLE14=I'm Thinking Tonight Of My Blue Eyes
TTITLE15=Roll Along Kentucky Moon
TTITLE16=When You And I Were Young Maggie
TTITLE17=The Lily Of The Valley
TTITLE18=Kentucky Waltz
TTITLE19=Will The Circle Be Unbroken
EXTD=
EXTT0=
EXTT1=
EXTT2=
EXTT3=
EXTT4=
EXTT5=
EXTT6=
EXTT7=
EXTT8=
EXTT9=
EXTT10=
EXTT11=
EXTT12=
EXTT13=
EXTT14=
EXTT15=
EXTT16=
EXTT17=
EXTT18=
EXTT19=
PLAYORDER=
